<?xml version="1.0" standalone="no"?><!DOCTYPE svg PUBLIC "-//W3C//DTD SVG 1.1//EN" "http://www.w3.org/Graphics/SVG/1.1/DTD/svg11.dtd"><svg t="1757824044811" class="icon" viewBox="0 0 1024 1024" version="1.1" xmlns="http://www.w3.org/2000/svg" p-id="10762" xmlns:xlink="http://www.w3.org/1999/xlink" width="200" height="200"><path d="M912.096 403.114L551.207 92.002c-11.613-10.012-26.454-15.526-41.788-15.526s-30.175 5.514-41.788 15.526l-360.89 311.112c-25.544 8.407-44.043 32.475-44.043 60.797v419.841c0 35.29 28.71 64 64 64H892.14c35.29 0 64-28.71 64-64V463.911c0-28.322-18.499-52.39-44.044-60.797z m-337.858 175.9l-43.925-37.867c-10.505-9.056-25.427-10.189-37.038-3.396a32.046 32.046 0 0 0-4.751 3.396l-58.306 50.264-36.206 31.212-185.161-158.712h601.136l-185.164 158.71-50.585-43.607z m-447.54-101.227L344.983 664.89 126.698 853.066V477.787z m382.721 129.847l94.449 81.424 0.062 0.051 225.787 194.644H189.121l320.298-276.119z m164.434 57.255L892.14 477.787v375.279L673.853 664.889zM509.419 140.477l300.943 259.434H208.476l300.943-259.434z" p-id="10763"></path></svg>