<?xml version="1.0" standalone="no"?><!DOCTYPE svg PUBLIC "-//W3C//DTD SVG 1.1//EN" "http://www.w3.org/Graphics/SVG/1.1/DTD/svg11.dtd"><svg t="1757823925117" class="icon" viewBox="0 0 1024 1024" version="1.1" xmlns="http://www.w3.org/2000/svg" p-id="7214" xmlns:xlink="http://www.w3.org/1999/xlink" width="200" height="200"><path d="M986.642286 475.648c-13.824 13.842286-38.070857 14.08-44.928 8.923429-1.536-1.152-23.222857-18.029714-55.899429-43.501715 0.384 2.304 1.042286 4.571429 1.042286 6.930286v438.857143a73.142857 73.142857 0 0 1-73.142857 73.142857h-585.142857a73.142857 73.142857 0 0 1-73.142858-73.142857v-438.857143c0-8.045714 2.468571-15.744 6.454858-22.985143C115.730286 459.52 83.657143 483.492571 82.285714 484.571429c-5.138286 4.004571-36.662857 9.618286-50.688-4.406858-13.385143-13.385143-13.312-40.155429 1.554286-53.869714C45.970286 414.445714 399.908571 153.362286 496.822857 81.92c10.697143-7.332571 34.889143-8.265143 47.469714-0.64 94.793143 70.765714 448.548571 335.140571 453.997715 341.577143 6.290286 7.424 1.938286 39.204571-11.648 52.790857zM429.714286 886.857143h182.857143v-219.428572a36.571429 36.571429 0 0 0-36.571429-36.571428h-109.714286a36.571429 36.571429 0 0 0-36.571428 36.571428v219.428572z m112.146285-714.130286c-12.196571-9.545143-29.056-9.581714-40.246857-1.572571L223.177143 379.209143c1.792-0.585143 3.657143-1.316571 5.394286-1.773714V850.285714a36.571429 36.571429 0 0 0 36.571428 36.571429h91.428572v-256a73.142857 73.142857 0 0 1 73.142857-73.142857h182.857143a73.142857 73.142857 0 0 1 73.142857 73.142857v256h91.428571a36.571429 36.571429 0 0 0 36.571429-36.571429V384.841143c-97.536-76.068571-223.030857-174.025143-271.853715-212.114286z" fill="#666666" p-id="7215"></path></svg>