<?xml version="1.0" encoding="UTF-8" standalone="no"?>
<svg
   class="icon"
   width="24px"
   height="24px"
   viewBox="0 0 24 24"
   version="1.1"
   id="svg1"
   sodipodi:docname="moon1.svg"
   inkscape:version="1.4.2 (f4327f4, 2025-05-13)"
   xmlns:inkscape="http://www.inkscape.org/namespaces/inkscape"
   xmlns:sodipodi="http://sodipodi.sourceforge.net/DTD/sodipodi-0.dtd"
   xmlns="http://www.w3.org/2000/svg"
   xmlns:svg="http://www.w3.org/2000/svg">
  <defs
     id="defs1" />
  <sodipodi:namedview
     id="namedview1"
     pagecolor="#ffffff"
     bordercolor="#000000"
     borderopacity="0.25"
     inkscape:showpageshadow="2"
     inkscape:pageopacity="0.0"
     inkscape:pagecheckerboard="0"
     inkscape:deskcolor="#d1d1d1"
     showgrid="false"
     inkscape:zoom="11.412703"
     inkscape:cx="17.130034"
     inkscape:cy="28.345606"
     inkscape:window-width="1920"
     inkscape:window-height="1009"
     inkscape:window-x="-8"
     inkscape:window-y="-8"
     inkscape:window-maximized="1"
     inkscape:current-layer="svg1" />
  <path
     d="m 16.150333,0.03709694 a 0.54958445,0.54958445 0 0 0 -0.732352,0.6430172 C 15.617172,1.504489 15.864493,2.6888512 15.864493,3.4788763 A 10.494316,10.494316 0 0 1 0.7893895,12.917989 0.54958445,0.54958445 0 0 0 0.0089899,13.511493 12.090858,12.090858 0 0 0 12.512041,23.438366 c 6.281747,-0.304975 11.320068,-5.465614 11.483568,-11.75286 A 12.090858,12.090858 0 0 0 16.150292,0.03706421 Z M 11.908911,21.529966 A 10.1838,10.1838 0 0 1 2.703371,15.697501 0.05633243,0.05633243 0 0 1 2.766893,15.619321 12.36565,12.36565 0 0 0 5.3678065,15.894083 12.430227,12.430227 0 0 0 17.782918,3.4789715 V 3.1780687 a 0.05633243,0.05633243 0 0 1 0.08934,-0.046418 10.189296,10.189296 0 0 1 2.098039,2.0348371 10.068388,10.068388 0 0 1 2.106282,6.1965652 10.179679,10.179679 0 0 1 -10.167312,10.167314 z M 3.930324,4.9407637 a 0.23082547,0.23082547 0 0 0 0.074107,0.010573 1.9565207,1.9565207 0 0 1 1.9510314,1.9510234 0.19647648,0.19647648 0 0 0 0.012215,0.074107 0.29677562,0.29677562 0 0 0 0.5715982,0 0.2253296,0.2253296 0 0 0 0.010573,-0.074107 1.9578946,1.9578946 0 0 1 1.9510235,-1.9510234 0.2253296,0.2253296 0 0 0 0.074103,-0.010573 0.29814954,0.29814954 0 0 0 0,-0.5729827 0.2253296,0.2253296 0 0 0 -0.074103,-0.011394 1.9565207,1.9565207 0 0 1 -1.9510235,-1.9510235 0.2253296,0.2253296 0 0 0 -0.010573,-0.074107 0.29677562,0.29677562 0 0 0 -0.5715982,0 0.19647648,0.19647648 0 0 0 -0.012215,0.074107 1.9551467,1.9551467 0 0 1 -1.9455346,1.9496471 0.23082547,0.23082547 0 0 0 -0.074107,0.011394 0.29814954,0.29814954 0 0 0 0,0.5729823 z"
     id="path1"
     style="stroke-width:0.0257618" />
</svg>
