<?xml version="1.0" encoding="UTF-8" standalone="no"?>
<svg
   class="icon"
   width="24px"
   height="24px"
   viewBox="0 0 24 24"
   version="1.1"
   id="svg1"
   sodipodi:docname="sun1.svg"
   inkscape:version="1.4.2 (f4327f4, 2025-05-13)"
   xmlns:inkscape="http://www.inkscape.org/namespaces/inkscape"
   xmlns:sodipodi="http://sodipodi.sourceforge.net/DTD/sodipodi-0.dtd"
   xmlns="http://www.w3.org/2000/svg"
   xmlns:svg="http://www.w3.org/2000/svg">
  <defs
     id="defs1" />
  <sodipodi:namedview
     id="namedview1"
     pagecolor="#ffffff"
     bordercolor="#000000"
     borderopacity="0.25"
     inkscape:showpageshadow="2"
     inkscape:pageopacity="0.0"
     inkscape:pagecheckerboard="0"
     inkscape:deskcolor="#d1d1d1"
     inkscape:zoom="16.14"
     inkscape:cx="16.635688"
     inkscape:cy="18.804213"
     inkscape:window-width="1920"
     inkscape:window-height="1009"
     inkscape:window-x="-8"
     inkscape:window-y="-8"
     inkscape:window-maximized="1"
     inkscape:current-layer="svg1" />
  <path
     d="m 11.999316,3.995209 a 8.0068438,8.0068438 0 1 0 8.006844,8.006844 8.0068438,8.0068438 0 0 0 -8.006844,-8.006844 z m 0,14.097519 a 6.0906755,6.0906755 0 1 1 6.090677,-6.090675 6.0975185,6.0975185 0 0 1 -6.090677,6.090675 z M 11.041232,0 m 0.136869,0 h 1.64243 Q 12.9574,0 12.9574,0.136869 v 2.623782 q 0,0.136869 -0.136869,0.136869 h -1.64243 q -0.136869,0 -0.136869,-0.136869 V 0.136869 Q 11.041232,0 11.178101,0 Z M 2.835994,4.191457 m 0.09678,-0.09678 1.161373,-1.161373 q 0.09678,-0.09678 0.193562,0 l 1.855293,1.855293 q 0.09678,0.09678 0,0.193562 L 4.98163,6.143532 q -0.09678,0.09678 -0.193562,0 L 2.932774,4.288238 q -0.09678,-0.09678 0,-0.193561 z M 0,11.042602 m 0.136869,0 h 2.623782 q 0.136869,0 0.136869,0.136869 v 1.64243 q 0,0.136869 -0.136869,0.136869 H 0.136869 Q 0,12.95877 0,12.821901 v -1.64243 q 0,-0.136869 0.136869,-0.136869 z m 2.702279,8.765948 m 0.09678,-0.09678 1.855293,-1.855294 q 0.09678,-0.09678 0.193562,0 l 1.161373,1.161373 q 0.09678,0.09678 0,0.193562 l -1.855294,1.855293 q -0.09678,0.09678 -0.193561,0 L 2.935928,19.905331 q -0.09678,-0.09678 0,-0.193561 z m 8.108039,1.39071 m 0.136869,0 h 1.64243 q 0.136869,0 0.136869,0.136869 v 2.623782 Q 12.960135,24 12.823266,24 h -1.64243 q -0.136869,0 -0.136869,-0.136869 v -2.623782 q 0,-0.136869 0.136869,-0.136869 z m 6.580023,-1.989606 m 0.09678,-0.09678 1.161373,-1.161373 q 0.09678,-0.09678 0.193563,0 l 1.855293,1.855292 q 0.09678,0.09678 0,0.193563 l -1.161372,1.161373 q -0.09678,0.09678 -0.193564,0 l -1.855293,-1.855294 q -0.09678,-0.09678 0,-0.193561 z m 3.246209,-7.976231 m 0.136869,0 h 2.62378 q 0.136869,0 0.136869,0.136869 v 1.64243 q 0,0.136869 -0.136869,0.136869 h -2.62378 q -0.136869,0 -0.136869,-0.136869 v -1.64243 q 0,-0.136869 0.136869,-0.136869 z M 17.759104,4.883721 m 0.09678,-0.09678 1.855294,-1.855294 q 0.09678,-0.09678 0.193561,0 l 1.161373,1.161375 q 0.09678,0.09678 0,0.193562 l -1.855294,1.855293 q -0.09678,0.09678 -0.193561,0 L 17.855884,4.980504 q -0.09678,-0.09678 0,-0.193563 z"
     id="path1"
     style="stroke-width:0.0256629" />
</svg>
